<svg xmlns="http://www.w3.org/2000/svg" xmlns:svg="http://www.w3.org/2000/svg" id="Livello_1" data-name="Livello 1" version="1.1" viewBox="0 0 500 500"><defs id="defs374"><style id="style372">.cls-1{fill:#579bd4}.cls-2{fill:#d6d6d6}.cls-4{fill:#fff}</style></defs><title id="title376">document_Tavola disegno 1</title><path id="path378" d="M411.31,118.48v328a12,12,0,0,1-12,12H100.69a12,12,0,0,1-12-12V53.54a12,12,0,0,1,12-12H315.82Z" class="cls-1"/><path id="path380" d="M315.82,41.54v63.54a13.44,13.44,0,0,0,13.4,13.4h82.1Z" class="cls-2"/><rect id="rect386" width="235.493" height="11.33" x="133.33" y="220.33" class="cls-4" rx="5.67" ry="5.665"/><rect id="rect386-0" width="235.493" height="11.33" x="133.599" y="259.943" class="cls-4" rx="5.67" ry="5.665" style="fill:#fff"/><rect id="rect386-3" width="235.493" height="11.33" x="134.109" y="299.814" class="cls-4" rx="5.67" ry="5.665" style="fill:#fff"/><rect id="rect386-6" width="235.493" height="11.33" x="134.109" y="339.814" class="cls-4" rx="5.67" ry="5.665" style="fill:#fff"/><rect id="rect386-5" width="235.493" height="11.33" x="134.109" y="379.814" class="cls-4" rx="5.67" ry="5.665" style="fill:#fff"/><rect id="rect388" width="130.41" height="11.33" x="133.33" y="181.36" class="cls-4" rx="5.67" ry="5.67"/></svg>