<svg xmlns="http://www.w3.org/2000/svg" xmlns:svg="http://www.w3.org/2000/svg" id="Livello_1" data-name="Livello 1" version="1.1" viewBox="0 0 500 500"><defs id="defs4"><style id="style2">.cls-1{fill:#7b499d}.cls-2{fill:#d6d6d6}.cls-3{fill:#fff}</style></defs><title id="title6">audio_Tavola disegno 1</title><path id="path8" d="M411.31,118.48v328a12,12,0,0,1-12,12H100.69a12,12,0,0,1-12-12V53.54a12,12,0,0,1,12-12H315.82Z" class="cls-1"/><path id="path10" d="M315.82,41.54v63.54a13.44,13.44,0,0,0,13.4,13.4h82.1Z" class="cls-2"/><rect id="rect12" width="11.5" height="48.46" x="139.26" y="245.77" class="cls-3" rx="4.67" ry="4.67"/><rect id="rect14" width="11.5" height="77.21" x="156.51" y="231.4" class="cls-3" rx="4.67" ry="4.67"/><rect id="rect16" width="11.5" height="151.33" x="173.75" y="194.33" class="cls-3" rx="4.67" ry="4.67"/><rect id="rect18" width="11.5" height="88.29" x="191" y="225.85" class="cls-3" rx="4.67" ry="4.67"/><rect id="rect20" width="11.5" height="132.44" x="208.25" y="203.78" class="cls-3" rx="4.67" ry="4.67"/><rect id="rect22" width="11.5" height="77.21" x="225.5" y="231.4" class="cls-3" rx="4.67" ry="4.67"/><rect id="rect24" width="11.5" height="48.46" x="242.75" y="245.77" class="cls-3" rx="4.67" ry="4.67"/><rect id="rect18-5" width="11.5" height="88.29" x="294.38" y="225.309" class="cls-3" rx="4.67" ry="4.67" style="fill:#fff"/><rect id="rect20-7" width="11.5" height="132.44" x="311.63" y="203.239" class="cls-3" rx="4.67" ry="4.67" style="fill:#fff"/><rect id="rect22-8" width="11.5" height="77.21" x="328.88" y="230.859" class="cls-3" rx="4.67" ry="4.67" style="fill:#fff"/><rect id="rect24-7" width="11.5" height="48.46" x="346.13" y="245.229" class="cls-3" rx="4.67" ry="4.67" style="fill:#fff"/><rect id="rect26" width="11.5" height="132.44" x="260" y="203.78" class="cls-3" rx="4.67" ry="4.67"/><rect id="rect28" width="11.5" height="71.66" x="277.24" y="234.17" class="cls-3" rx="4.67" ry="4.67"/></svg>